<svg xmlns="http://www.w3.org/2000/svg" width="20.246" height="14.084" viewBox="0 0 20.246 14.084"><path d="M1.053,14.084h18.14a1.119,1.119,0,0,0,1.053-1.111V1.111A1.114,1.114,0,0,0,19.142,0H1.1A1.114,1.114,0,0,0,0,1.111V12.969a1.12,1.12,0,0,0,1.053,1.115Z" fill="#fefefe"/><path d="M8.707,8.447v5.637h2.817V8.447h8.722V5.63H11.524V0H8.707V5.63H0V8.447Z" fill="#c8102e"/><path d="M33.98,4.559V0h6.686a1.118,1.118,0,0,1,1.02.7L33.98,4.559Z" transform="translate(-21.517)" fill="#012169"/><path d="M33.98,25.97v4.559h6.73a1.125,1.125,0,0,0,.976-.7L33.98,25.97Z" transform="translate(-21.517 -16.445)" fill="#012169"/><path d="M7.9,25.97v4.559H1.186a1.116,1.116,0,0,1-.976-.712L7.9,25.97Z" transform="translate(-0.133 -16.445)" fill="#012169"/><path d="M7.9,4.559V0H1.23A1.115,1.115,0,0,0,.21.712L7.9,4.559Z" transform="translate(-0.133)" fill="#012169"/><path d="M0,10.375H2.806L0,8.97Z" transform="translate(0 -5.68)" fill="#012169"/><path d="M50.33,10.362H47.51L50.33,8.95Z" transform="translate(-30.085 -5.667)" fill="#012169"/><path d="M50.33,25.6H47.51l2.82,1.412Z" transform="translate(-30.085 -16.211)" fill="#012169"/><path d="M0,25.6H2.806L0,27Z" transform="translate(0 -16.211)" fill="#012169"/><path d="M43.137,3.25l-6.987,3.5h1.562l5.425-2.714Z" transform="translate(-22.891 -2.058)" fill="#c8102e"/><path d="M6.972,25.6H5.41L0,28.307V29.1l6.987-3.5Z" transform="translate(0 -16.211)" fill="#c8102e"/><path d="M3.858,8.124H5.421L0,5.41v.785Z" transform="translate(0 -3.426)" fill="#c8102e"/><path d="M41.932,25.59H40.37l5.439,2.725V27.53Z" transform="translate(-25.564 -16.204)" fill="#c8102e"/></svg>