<svg xmlns="http://www.w3.org/2000/svg" width="14.8" height="14.8" viewBox="0 0 14.8 14.8"><path d="M10.79,8.869c-.186-.092-1.09-.535-1.258-.6s-.292-.092-.415.092-.475.594-.582.717-.215.13-.4.046a5,5,0,0,1-1.482-.916A5.6,5.6,0,0,1,5.631,6.936c-.107-.185-.012-.287.08-.379s.186-.213.278-.323a1.563,1.563,0,0,0,.183-.306.339.339,0,0,0-.015-.323c-.046-.092-.414-1-.569-1.36s-.3-.314-.414-.314-.229-.009-.352-.009a.7.7,0,0,0-.491.221,2.059,2.059,0,0,0-.644,1.526,3.608,3.608,0,0,0,.752,1.9,8.223,8.223,0,0,0,3.145,2.766c.44.185.783.3,1.051.388a2.551,2.551,0,0,0,1.159.075,1.9,1.9,0,0,0,1.243-.879,1.526,1.526,0,0,0,.111-.879c-.046-.083-.167-.129-.351-.213m-3.358,4.59h-.01a6.169,6.169,0,0,1-3.117-.851l-.222-.132-2.312.6.62-2.248-.147-.231a6.116,6.116,0,0,1,9.526-7.545,6.036,6.036,0,0,1,1.794,4.31,6.124,6.124,0,0,1-6.127,6.1M12.654,2.127A7.488,7.488,0,0,0,7.428,0,7.332,7.332,0,0,0,1.046,11L0,14.8l3.907-1.019a7.438,7.438,0,0,0,3.521.892h0A7.363,7.363,0,0,0,14.8,7.338a7.273,7.273,0,0,0-2.155-5.187"/></svg>